<svg width="20" height="20" viewBox="0 0 20 20" fill="none" xmlns="http://www.w3.org/2000/svg">
<path d="M9.99992 7.5C10.663 7.5 11.2988 7.76339 11.7677 8.23223C12.2365 8.70107 12.4999 9.33696 12.4999 10C12.4999 10.663 12.2365 11.2989 11.7677 11.7678C11.2988 12.2366 10.663 12.5 9.99992 12.5C9.33688 12.5 8.70099 12.2366 8.23215 11.7678C7.76331 11.2989 7.49992 10.663 7.49992 10C7.49992 9.33696 7.76331 8.70107 8.23215 8.23223C8.70099 7.76339 9.33688 7.5 9.99992 7.5ZM9.99992 3.75C14.1666 3.75 17.7249 6.34167 19.1666 10C17.7249 13.6583 14.1666 16.25 9.99992 16.25C5.83325 16.25 2.27492 13.6583 0.833252 10C2.27492 6.34167 5.83325 3.75 9.99992 3.75ZM2.64992 10C4.02492 12.8 6.86658 14.5833 9.99992 14.5833C13.1333 14.5833 15.9749 12.8 17.3499 10C15.9749 7.2 13.1333 5.41667 9.99992 5.41667C6.86658 5.41667 4.02492 7.2 2.64992 10Z" fill="#000"/>
</svg>
