<svg width="20" height="20" viewBox="0 0 20 20" fill="none" xmlns="http://www.w3.org/2000/svg">
<path d="M13.5 6.5H17V13.5H13.5V14.9C13.5 15.0857 13.5737 15.2637 13.705 15.395C13.8363 15.5263 14.0143 15.6 14.2 15.6H15.6V17H13.85C13.465 17 12.8 16.685 12.8 16.3C12.8 16.685 12.135 17 11.75 17H10V15.6H11.4C11.5857 15.6 11.7637 15.5263 11.895 15.395C12.0262 15.2637 12.1 15.0857 12.1 14.9V5.1C12.1 4.91435 12.0262 4.7363 11.895 4.60503C11.7637 4.47375 11.5857 4.4 11.4 4.4H10V3H11.75C12.135 3 12.8 3.315 12.8 3.7C12.8 3.315 13.465 3 13.85 3H15.6V4.4H14.2C14.0143 4.4 13.8363 4.47375 13.705 4.60503C13.5737 4.7363 13.5 4.91435 13.5 5.1V6.5ZM3 6.5H10.7V7.9H4.4V12.1H10.7V13.5H3V6.5ZM15.6 12.1V7.9H13.5V12.1H15.6ZM7.55 10C7.55 9.72152 7.43938 9.45445 7.24246 9.25754C7.04555 9.06062 6.77848 8.95 6.5 8.95C6.22152 8.95 5.95445 9.06062 5.75754 9.25754C5.56062 9.45445 5.45 9.72152 5.45 10C5.45 10.2785 5.56062 10.5455 5.75754 10.7425C5.95445 10.9394 6.22152 11.05 6.5 11.05C6.77848 11.05 7.04555 10.9394 7.24246 10.7425C7.43938 10.5455 7.55 10.2785 7.55 10ZM10.7 9.223C10.273 8.831 9.608 8.866 9.216 9.3C8.824 9.72 8.859 10.385 9.3 10.777C9.685 11.141 10.301 11.141 10.7 10.777V9.223Z" fill="#000"/>
</svg>
