<svg width="20" height="20" viewBox="0 0 20 20" fill="none" xmlns="http://www.w3.org/2000/svg">
<path d="M10.8334 10.8334H9.16675V5.83342H10.8334V10.8334ZM10.8334 14.1667H9.16675V12.5001H10.8334V14.1667ZM10.0001 1.66675C8.90573 1.66675 7.8221 1.8823 6.81105 2.30109C5.80001 2.71987 4.88135 3.3337 4.10753 4.10752C2.54472 5.67033 1.66675 7.78994 1.66675 10.0001C1.66675 12.2102 2.54472 14.3298 4.10753 15.8926C4.88135 16.6665 5.80001 17.2803 6.81105 17.6991C7.8221 18.1179 8.90573 18.3334 10.0001 18.3334C12.2102 18.3334 14.3298 17.4554 15.8926 15.8926C17.4554 14.3298 18.3334 12.2102 18.3334 10.0001C18.3334 8.90573 18.1179 7.8221 17.6991 6.81105C17.2803 5.80001 16.6665 4.88135 15.8926 4.10752C15.1188 3.3337 14.2002 2.71987 13.1891 2.30109C12.1781 1.8823 11.0944 1.66675 10.0001 1.66675Z" fill="#000"/>
</svg>
